PathFileType	4	(X/Y/Z)	Patient4_TMGait_0pt7_02_left_33.trc.trc
DataRate	CameraRate	NumFrames	NumMarkers	Units	OrigDataRate	OrigDataStartFrame	OrigNumFrames
86.419753086420	86.419753086420	6	33	mm	86.419753086420	106	       141
Frame#	Time	Sacral			L.Shoulder			Chest			R.Shoulder			Neck			R.ASIS			L.ASIS			R.Thigh.Superior			R.Thigh.Lateral			R.Thigh.Inferior			R.Patella			L.Thigh.Superior			L.Thigh.Lateral			L.Thigh.Inferior			L.Patella			L.Shank.Superior			L.Shank.Lateral			L.Shank.Inferior			R.Shank.Superior			R.Shank.Lateral			R.Shank.Inferior			R.Heel			R.Midfoot.Superior			R.Midfoot.Lateral			R.Toe			L.Heel			L.Midfoot.Lateral			L.Midfoot.Superior			L.Toe			L.Elbow			L.Wrist			R.Elbow			R.Wrist			
		X1	Y1	Z1	X2	Y2	Z2	X3	Y3	Z3	X4	Y4	Z4	X5	Y5	Z5	X6	Y6	Z6	X7	Y7	Z7	X8	Y8	Z8	X9	Y9	Z9	X10	Y10	Z10	X11	Y11	Z11	X12	Y12	Z12	X13	Y13	Z13	X14	Y14	Z14	X15	Y15	Z15	X16	Y16	Z16	X17	Y17	Z17	X18	Y18	Z18	X19	Y19	Z19	X20	Y20	Z20	X21	Y21	Z21	X22	Y22	Z22	X23	Y23	Z23	X24	Y24	Z24	X25	Y25	Z25	X26	Y26	Z26	X27	Y27	Z27	X28	Y28	Z28	X29	Y29	Z29	X30	Y30	Z30	X31	Y31	Z31	X32	Y32	Z32	X33	Y33	Z33	

106	38.925000000000	864.559735753669	1023.630363809657	523.450031209772	1065.907047229744	1426.948126728925	313.439693042868	1180.861378933240	1349.022355056978	463.905822409001	1127.658191620751	1437.419240603833	642.741941263579	1093.871363016141	1490.677438213452	464.258818535906	1093.723288596506	937.841810997556	622.598931353804	1059.416871201849	959.932249568418	351.418772089434	1124.365328636648	737.726972264168	590.152142010949	1040.685689926788	632.803028456229	650.439095902486	1110.992894412188	578.746919184225	564.989996467960	1107.379357909539	488.441669502790	569.196853591608	1151.461544751006	802.025988566710	385.538259008372	1126.361311303077	677.434280428264	297.517195236251	1234.863377495251	623.226434489518	363.556688642474	1258.667396708617	534.369337800734	351.075165936586	1196.330049570745	462.637236525919	339.535260486294	1057.131236563249	411.483046873841	292.684711134297	1057.595695472259	278.872822133206	339.795032019269	1071.711174121467	402.734551756486	576.754722131493	995.686607350301	303.956293736819	640.001455539579	1026.648328586635	207.073063776716	572.941036043654	878.737767515951	48.354004167674	548.879056727524	1053.214375816413	97.241573404134	576.625499663138	965.000308503702	39.417877011951	618.385590649372	1172.759636008822	39.168061350883	599.912542364567	875.628523066707	198.014282814608	379.429858734537	933.273253980004	160.190374815070	295.173721377945	1038.015902495493	173.878542851975	313.563026395161	1121.562911077613	68.528307904829	277.342351643072	982.872265691132	1077.551430887052	222.756106554960	1020.343487204838	817.300821484387	216.909683320407	1113.264892399450	1089.959137311033	770.566270961229	1293.588121134626	907.171433920039	727.792468125134	
107	38.936571428571	862.834506207555	1023.975135666775	523.807211743004	1063.888041196169	1426.998540054342	313.669547312868	1179.425654382393	1348.799643678670	463.491154932437	1127.279817618036	1437.113038237812	642.701715049280	1092.582462754037	1490.597941122045	464.469879928455	1091.973985711055	937.649471337622	622.388408354189	1057.295768497939	959.858155566393	351.271138373476	1119.818464071463	736.632961958308	589.694337258254	1035.268138375932	632.669179169401	650.694932282963	1104.355578468842	577.677113339443	565.044721495353	1099.411067159127	487.927120653291	569.237390256188	1150.632419077606	805.001392174466	385.845246323621	1128.265269209336	680.271567201984	297.094575774996	1237.483847694157	628.081670021464	363.278772491159	1263.481342352580	540.156351711585	350.533734040130	1203.845227267019	466.751406447740	338.799921297351	1066.920235761551	409.834395664331	291.830195174100	1073.162820839941	277.095906702614	338.693297145399	1063.983537604140	402.368333630095	576.874053025726	987.907400233714	303.674318928768	640.212103874914	1018.561465560811	206.766161429042	572.987323571972	870.519275515618	48.056357491055	548.900071496348	1044.893616432079	97.098296035017	576.563183280751	956.784712370438	39.245175670690	618.445954837809	1164.533656069344	39.175589235087	599.962321281320	894.850462300717	187.948086476611	378.235270487887	954.134698050700	153.179708113966	293.763239507629	1058.234535742447	171.556292113160	312.168482054811	1146.575775539485	70.244818226505	275.427313621960	974.483469854434	1079.093091961037	223.546311166137	1000.277105457924	817.589521074555	219.774777936584	1122.848359943232	1089.702509366771	770.391652503495	1314.678744486058	920.736423369057	724.083833529966	
108	38.948142857143	861.146359826445	1024.253360006838	523.923165656175	1061.945444455589	1427.044244441930	313.836474141384	1178.033698398874	1348.481666654754	462.994007840202	1126.944004804622	1436.650918132056	642.597134283964	1091.359027004465	1490.443796107799	464.660443103188	1090.226892549906	937.456377377255	622.089177669543	1055.285127232106	959.614171274895	350.981918211232	1115.134065368638	735.513290460061	589.222728573875	1029.532411768600	632.574993466973	650.917658999960	1097.375804085438	576.577442476691	565.155387945326	1091.078376388242	487.495558585586	569.315536246481	1149.533828288418	807.517794983640	386.091848152245	1129.666216025381	682.683411146275	296.654129124525	1239.486862759643	632.377649041088	362.915224015881	1267.549042603436	545.471052516853	350.010877323664	1210.764848135567	470.505558124427	338.129215054822	1076.625288811585	407.734522791268	290.667250681771	1088.634073416110	275.161455638640	337.481220059398	1055.942329777932	402.061482551073	577.007515213333	979.876383523697	303.404492774386	640.428475883726	1010.325034449619	206.501898759387	573.061215344929	862.286333392780	47.722321971955	548.912564565044	1036.563333609462	96.967110599269	576.519704392908	948.556408893556	39.051062046661	618.498498240362	1156.297751625213	39.192424300835	599.993381872273	914.371744859308	177.761808865061	376.423701351106	975.452871090075	146.094929952193	292.016627878720	1078.564978991058	169.207947965851	310.797950432516	1171.660914808234	72.185726717979	274.022862919841	965.675820162926	1080.974526413632	224.040190856837	981.266730280070	818.881611603755	222.756638682758	1132.452788379001	1089.636003328699	769.973857293001	1334.805881389994	935.428467230119	719.950025506662	
109	38.959714285714	859.522293133884	1024.463269041345	523.807893170729	1060.094035287537	1427.086330938985	313.929111714769	1176.689312135164	1348.076909635089	462.416613779929	1126.642470018426	1436.051655563508	642.416431885992	1090.207554772213	1490.221046283655	464.816081427516	1088.498552675546	937.283585007162	621.723561928955	1053.405499989255	959.204113061917	350.555963678031	1110.338667879910	734.391521942640	588.793928328175	1023.474063502183	632.542097188655	651.126504671770	1090.071308532514	575.475176279436	565.363237157286	1082.425925050108	487.160733454452	569.468990813794	1148.189367487510	809.544557672909	386.281757317520	1130.555364091552	684.617229264525	296.206372585272	1240.866612537899	636.022092391081	362.465077512080	1270.841490627332	550.212737146538	349.519862779516	1217.031788288009	473.823672743586	337.565151944634	1086.228157291054	405.178327670272	289.197956938138	1103.901658460506	273.086050206843	336.209700719255	1047.597475325189	401.833213467766	577.176907861805	971.592677235310	303.171128989767	640.666081024286	1001.951910505462	206.303799655478	573.177438786580	854.041881942569	47.378538105738	548.920943505187	1028.235065136592	96.855799456995	576.503236852256	940.318302367793	38.849351567620	618.543088021202	1148.057853106745	39.220425358258	600.006820524733	934.074055517786	167.537874279132	374.009371980362	997.127860909244	139.017825403629	289.982934752274	1098.880004295671	166.886122825386	309.520655745917	1196.663431974092	74.413791552434	273.270043105957	956.563815707932	1083.193198995416	224.293937027960	963.323792169301	820.972565383274	225.841578312307	1142.053533991045	1089.767903972416	769.288806498263	1353.824527123454	951.129127824844	715.412162285934	
110	38.971285714286	857.989429003409	1024.600095950190	523.474300958180	1058.346277352186	1427.123616042222	313.935481815006	1175.394541088246	1347.596657895471	461.762038536401	1126.361147032195	1435.338684244416	642.147109319080	1089.127389528026	1489.934939898513	464.919705619316	1086.805617997607	937.142128796976	621.304530574623	1051.679735415645	958.632631653672	349.996297603457	1105.459402263716	733.285619590670	588.457549428821	1017.108389534180	632.586442200974	651.338827019376	1082.479500655184	574.395956524987	565.700398273311	1073.519503137372	486.925271794569	569.732393725984	1146.635578485346	811.050695002441	386.403479695838	1130.927042650930	686.015690158575	295.755198885728	1241.617582106419	638.914912452738	361.925954844523	1273.327479432668	554.273872832212	349.072298425531	1222.581436133278	476.623943116894	337.141229679705	1095.683769174185	402.149573895699	287.443235745894	1118.848616724338	270.862292312926	334.932838434516	1038.977696499979	401.698965759231	577.404554716829	963.067602901620	302.995820505759	640.939914209722	993.460789503599	206.189748733726	573.348923306398	845.789358555930	47.050010035811	548.928319541112	1019.918456788477	96.768912425604	576.518141496301	932.073396857205	38.652689497011	618.579481691366	1139.819456785186	39.260071411056	600.005228737166	953.831294632545	157.321799289728	371.049746664834	1019.033885979858	131.994628100252	287.735077733363	1119.041587437946	164.610818337312	308.398931909036	1221.416283357839	76.950767870862	273.267489379829	947.275738997915	1085.736036758676	224.366086629929	946.412546651865	823.685931217403	229.009607768127	1151.619838859072	1090.111656451960	768.318916689812	1371.601394745665	967.704751863288	710.505902189445	
111	38.982857142857	856.574834664641	1024.653787965184	522.935657790476	1056.711622633762	1427.150539095164	313.843673286180	1174.149861551756	1347.053144237430	461.034267650643	1126.080280032372	1434.537143144899	641.777086744964	1088.110595572518	1489.588153407597	464.953044777545	1085.165865546989	937.031218550631	620.835522403351	1050.133750570292	957.903545422141	349.305808830724	1100.526188452191	732.205381959283	588.250704876082	1010.473981531525	632.715264496862	651.567190624210	1074.659119268701	573.360634306997	566.185009910748	1064.444222718082	486.779033360602	570.131613186439	1144.920024364592	812.001869083157	386.435265293730	1130.780102999062	686.817302507633	295.299044093673	1241.734191087563	640.951318384386	361.299976292068	1274.974417791273	557.542261495677	348.681346055311	1227.341741351406	478.820914985346	336.879086868260	1104.911062402285	398.624811433555	285.448542646733	1133.344672681657	268.462301049749	333.704947994865	1030.132378060629	401.667229267534	577.709470084210	954.327487699151	302.894634753406	641.261227098850	984.876483823700	206.169263509259	573.584388343388	837.532547372503	46.757402445419	548.936214859782	1011.620754071174	96.707747030143	576.565106506334	923.824782466077	38.471431483089	618.607460469136	1131.586775269946	39.309840653940	599.992582252406	973.503083506545	147.132281001654	367.651490655171	1041.005995894255	125.040928342452	285.369033153487	1138.892015695067	162.370661347359	307.482903045331	1245.726348423837	79.772530526271	274.053928787687	937.942994473389	1088.577507686432	224.313262298222	930.468053471833	826.874827116770	232.233473772812	1161.113601273527	1090.683541113207	767.053747501592	1388.018843045589	985.009945042670	705.275830410734	
